<?xml version="1.0" encoding="UTF-8"?>
<svg id="Capa_1" data-name="Capa 1" xmlns="http://www.w3.org/2000/svg" xmlns:xlink="http://www.w3.org/1999/xlink" viewBox="0 0 99.21 99.21">
  <defs>
    <style>
      .cls-1 {
        fill: url(#Degradado_sin_nombre_726);
      }
    </style>
    <linearGradient id="Degradado_sin_nombre_726" data-name="Degradado sin nombre 726" x1="15.67" y1="49.61" x2="83.54" y2="49.61" gradientUnits="userSpaceOnUse">
      <stop offset="0" stop-color="#0d91cb"/>
      <stop offset="1" stop-color="#00478f"/>
    </linearGradient>
  </defs>
  <path class="cls-1" d="M83.34,38.28c-1.31-9.82-8.81-17.26-18.66-18.51-3.79-.48-7.47,0-10.95,1.42-2.62,1.07-5.63,1.07-8.25,0-1.45-.59-2.96-1.01-4.51-1.28l-4.38-7.59c-.16-.28-.42-.48-.73-.56-.31-.08-.63-.04-.9.12-.28.16-.47.42-.56.72-.08.31-.04.63.12.91l3.52,6.1c-1.17-.04-2.34,0-3.51.15-9.9,1.26-17.79,9.38-18.76,19.32-.53,5.45.98,10.84,4.25,15.17,2.69,3.56,4.46,7.86,5.11,12.43l2.23,15.59c.42,2.96,2.99,5.18,5.98,5.18s5.33-1.99,5.9-4.74l3.46-8.91c.97-3,3.74-5.01,6.89-5.01s5.92,2.02,6.9,5.05l3.43,8.81c.58,2.79,3.06,4.81,5.92,4.81s5.56-2.23,5.98-5.19l2.22-15.58c.62-4.37,2.46-8.71,5.46-12.91,3.2-4.48,4.55-9.99,3.81-15.51ZM77.59,52.4c-3.22,4.52-5.2,9.21-5.88,13.96l-2.22,15.59c-.25,1.79-1.81,3.14-3.62,3.14s-3.25-1.24-3.61-3.01l-3.48-8.98c-1.29-3.99-4.97-6.67-9.17-6.67s-7.88,2.68-9.16,6.64l-3.49,9-.03.09c-.34,1.7-1.85,2.94-3.59,2.94s-3.36-1.35-3.62-3.13l-2.23-15.59c-.71-4.97-2.64-9.65-5.57-13.54-2.91-3.85-4.25-8.65-3.78-13.5.86-8.84,7.88-16.06,16.68-17.18,1.57-.2,3.12-.21,4.64-.04l4.77,8.27c-1.42-.31-2.9-.39-4.37-.22-6.15.69-11.13,5.65-11.84,11.79-.34,2.97.27,5.88,1.76,8.42,3.62,6.14,5.18,10.2,4.28,16.68l-.29,2.06c-.18,1.3.58,2.44,1.85,2.77.23.06.45.09.67.09,1.01,0,1.9-.6,2.29-1.6,6.36-16.44,9.43-15.26,10.44-14.87.39.15.72.15,1.11,0,1.01-.39,4.09-1.57,10.44,14.87.46,1.2,1.69,1.85,2.96,1.52,1.27-.33,2.04-1.47,1.85-2.77l-.29-2.06c-.9-6.48.66-10.54,4.28-16.68,1.5-2.54,2.11-5.45,1.76-8.42-.71-6.14-5.69-11.1-11.84-11.79-2.44-.28-4.9.11-7.12,1.13-1.46.67-3.05.76-4.54.27l-5.09-8.83c.67.19,1.33.41,1.99.68,3.19,1.31,6.86,1.31,10.06,0,3.1-1.27,6.38-1.69,9.75-1.26,8.76,1.11,15.43,7.72,16.59,16.45.66,4.92-.55,9.82-3.39,13.8ZM46.37,42.27c.21.37.61.6,1.04.6.21,0,.42-.06.6-.16l2.51-1.45,2.73,4.74-2.51,1.45c-.28.16-.47.42-.56.72-.08.31-.04.63.12.91.21.37.61.6,1.04.6.21,0,.42-.06.6-.16l2.51-1.45,3.33,5.77c.21.37.61.6,1.04.6.21,0,.42-.06.6-.16.28-.16.47-.42.56-.72.08-.31.04-.63-.12-.91l-3.33-5.77,2.22-1.28c.28-.16.47-.42.56-.72.08-.31.04-.63-.12-.91-.16-.28-.42-.48-.73-.56-.31-.08-.63-.04-.9.12l-2.22,1.28-2.73-4.74,2.22-1.28c.28-.16.47-.42.56-.73.08-.31.04-.63-.12-.91-.16-.28-.42-.48-.73-.56-.31-.08-.63-.04-.9.12l-2.22,1.28-2.17-3.76c1.36.06,2.73-.19,3.99-.77,1.81-.83,3.84-1.15,5.85-.92,5.06.57,9.15,4.64,9.73,9.69.28,2.45-.22,4.84-1.45,6.93-3.82,6.48-5.58,11.08-4.59,18.22l.29,2.06c0,.07.01.1-.09.13-.09.02-.1,0-.13-.07-3.9-10.07-7.19-15.52-10.07-16.64-.43-.17-.82-.23-1.17-.23-.73,0-1.29.28-1.68.47-.1.05-.24.12-.3.14-.07-.02-.2-.09-.3-.14-.57-.28-1.52-.75-2.85-.24-2.88,1.12-6.18,6.57-10.07,16.64-.02.06-.04.09-.13.07-.1-.03-.1-.06-.09-.13l.29-2.06c1-7.14-.76-11.74-4.59-18.22-1.23-2.09-1.73-4.48-1.45-6.93.58-5.05,4.68-9.12,9.73-9.69,2.02-.22,4.04.09,5.85.92.01,0,.02,0,.03.01l3.3,5.71-2.51,1.45c-.28.16-.47.42-.56.72s-.04.63.12.91Z"/>
</svg>