<?xml version="1.0" encoding="UTF-8"?>
<svg id="Capa_1" data-name="Capa 1" xmlns="http://www.w3.org/2000/svg" xmlns:xlink="http://www.w3.org/1999/xlink" viewBox="0 0 99.21 99.21">
  <defs>
    <style>
      .cls-1 {
        fill: url(#Degradado_sin_nombre_726);
      }
    </style>
    <linearGradient id="Degradado_sin_nombre_726" data-name="Degradado sin nombre 726" x1="18.72" y1="49.61" x2="80.5" y2="49.61" gradientUnits="userSpaceOnUse">
      <stop offset="0" stop-color="#0d91cb"/>
      <stop offset="1" stop-color="#00478f"/>
    </linearGradient>
  </defs>
  <path class="cls-1" d="M80.34,32.73c-1.06-8.85-7.82-16.11-16.09-17.25-3.74-.51-6.71.09-10.28,2.09-1.37.77-2.84,1.18-4.35,1.22-1.54-.04-3.01-.45-4.38-1.22-3.57-2-6.55-2.6-10.28-2.09-8.26,1.15-15.03,8.4-16.08,17.25-.79,6.65,1.52,13.27,6.18,17.68.19.18.44.28.71.28h10.97l.4,5.57-2.52.2c-.33.03-.63.18-.83.42-.18.22-.27.49-.24.77.06.56.56.98,1.16.98l2.57-.2.29,4.05-2.96.24c-.33.03-.63.18-.83.42-.18.22-.27.49-.24.77.06.56.56.98,1.16.98l3.02-.24.29,4.05-3.4.27c-.33.03-.63.18-.83.42-.18.22-.27.49-.24.77.06.56.56.98,1.16.98l3.46-.28.29,4.05-3.85.31c-.33.03-.63.18-.83.42-.18.22-.27.49-.24.77.06.56.56.98,1.16.98l3.9-.31.42,5.83c.04.57.52,1.01,1.08,1.01h18.98c.57,0,1.04-.44,1.08-1.01l.54-7.59,3.88-.31c.33-.03.63-.18.83-.42.18-.22.27-.49.24-.77-.06-.58-.63-1.02-1.27-.98l-3.52.28.29-4.09,3.43-.27c.33-.03.63-.18.83-.42.18-.22.27-.49.24-.77-.06-.58-.63-1.02-1.27-.98l-3.07.24.29-4.09,2.98-.24c.33-.03.63-.18.83-.42.18-.22.27-.49.24-.77-.06-.58-.63-1.02-1.27-.98l-2.62.21.29-4.09,2.53-.2c.33-.03.63-.18.83-.42.18-.22.27-.49.24-.77-.06-.58-.63-1.02-1.27-.98l-2.17.17.26-3.57h10.97c.26,0,.51-.1.71-.28,4.67-4.42,6.98-11.03,6.18-17.68ZM58.09,81.74h-16.96l-.35-4.84,17.75-1.41-.45,6.25ZM58.69,73.29l-18.06,1.44-.29-4.05,18.64-1.48-.29,4.09ZM59.14,67.01l-18.96,1.51-.29-4.05,19.54-1.55-.29,4.09ZM59.59,60.72l-19.85,1.58-.29-4.05,20.43-1.62-.29,4.09ZM39.3,56.09l-.39-5.4h21.39l-.27,3.75-20.74,1.65ZM26.17,48.52c-3.97-3.94-5.92-9.72-5.22-15.53.94-7.89,6.95-14.35,14.29-15.37,3.25-.45,5.86.08,9.01,1.85,1.64.92,3.41,1.42,5.33,1.48h0s.14.01.14.01h.02c1.84-.08,3.6-.57,5.23-1.49,3.15-1.77,5.77-2.3,9.01-1.85,7.34,1.02,13.34,7.48,14.29,15.37.69,5.8-1.26,11.59-5.22,15.53H26.17Z"/>
</svg>