<?xml version="1.0" encoding="UTF-8"?>
<svg id="Capa_1" data-name="Capa 1" xmlns="http://www.w3.org/2000/svg" viewBox="0 0 588.29 93.16">
  <defs>
    <style>
      .cls-1 {
        fill: #004c92;
      }

      .cls-2 {
        fill: #00b3f4;
      }
    </style>
  </defs>
  <g>
    <g>
      <path class="cls-1" d="M160.51,46.29c0,4.26-.84,7.98-2.51,11.16-1.67,3.18-4.04,5.61-7.1,7.29-3.06,1.68-6.57,2.52-10.52,2.52h-16.72V25.93h14.96c6.96,0,12.35,1.76,16.16,5.27,3.81,3.51,5.72,8.54,5.72,15.09ZM151.8,46.29c0-4.44-1.15-7.82-3.46-10.16-2.31-2.34-5.6-3.5-9.88-3.5h-6.13v27.95h7.33c3.71,0,6.67-1.28,8.86-3.84,2.19-2.56,3.28-6.04,3.28-10.44Z"/>
      <path class="cls-1" d="M168.14,67.26V25.93h32.5v6.69h-23.84v10.38h22.05v6.69h-22.05v10.88h23.83v6.69h-32.49Z"/>
      <path class="cls-1" d="M234.44,67.26l-18.01-31.82c.35,3.09.53,5.57.53,7.45v24.37h-7.68V25.93h9.88l18.27,32.09c-.35-2.95-.53-5.64-.53-8.07v-24.02h7.68v41.32h-10.15Z"/>
      <path class="cls-1" d="M272.39,32.62v34.63h-8.65v-34.63h-13.34v-6.69h35.37v6.69h-13.37Z"/>
      <path class="cls-1" d="M316.26,67.26l-3.67-10.56h-15.75l-3.67,10.56h-8.65l15.07-41.32h10.21l15.02,41.32h-8.56ZM304.7,32.3l-.18.65c-.19.7-.43,1.51-.7,2.4-.27.9-1.95,5.85-5.04,14.84h11.88l-4.08-11.88-1.26-3.99-.62-2.02Z"/>
      <path class="cls-1" d="M331.5,67.26V25.93h8.65v34.64h22.17v6.69h-30.82Z"/>
    </g>
    <g>
      <path class="cls-2" d="M402.56,55.85c0,3.81-1.49,6.77-4.47,8.86-2.98,2.09-7.18,3.14-12.6,3.14-10.07,0-15.9-3.5-17.51-10.5l5.42-1.08c.63,2.49,1.96,4.31,3.99,5.47,2.03,1.16,4.8,1.75,8.3,1.75s6.41-.62,8.37-1.86c1.96-1.24,2.95-3.06,2.95-5.47,0-1.35-.31-2.44-.92-3.28-.62-.84-1.48-1.54-2.6-2.08s-2.44-1.01-3.99-1.38c-1.55-.37-3.26-.77-5.13-1.2-3.27-.72-5.74-1.45-7.43-2.17-1.69-.72-3.03-1.53-4-2.42-.98-.89-1.73-1.93-2.24-3.12-.52-1.19-.78-2.56-.78-4.1,0-3.54,1.35-6.27,4.06-8.18,2.71-1.92,6.58-2.87,11.63-2.87,4.69,0,8.28.72,10.76,2.16,2.48,1.44,4.22,3.89,5.22,7.35l-5.52.97c-.61-2.19-1.76-3.78-3.46-4.77-1.7-.99-4.06-1.48-7.07-1.48-3.3,0-5.83.55-7.57,1.64-1.74,1.1-2.61,2.73-2.61,4.9,0,1.27.34,2.32,1.01,3.15.67.83,1.64,1.53,2.92,2.11,1.27.58,3.8,1.28,7.6,2.13,1.27.29,2.54.59,3.8.89,1.26.3,2.47.66,3.62,1.08,1.15.42,2.23.91,3.24,1.48,1.01.57,1.88,1.26,2.62,2.08.74.82,1.33,1.79,1.75,2.9.42,1.11.63,2.42.63,3.93Z"/>
      <path class="cls-2" d="M427.84,67.84c-3.38,0-6.33-.61-8.86-1.85-2.52-1.23-4.48-3.02-5.87-5.37-1.39-2.35-2.08-5.14-2.08-8.39v-26.31h5.6v25.84c0,3.78.96,6.64,2.87,8.6,1.92,1.95,4.68,2.93,8.3,2.93s6.6-1.01,8.67-3.04c2.06-2.02,3.09-4.98,3.09-8.87v-25.46h5.57v25.78c0,3.34-.71,6.23-2.13,8.65-1.42,2.42-3.42,4.28-6.01,5.56-2.59,1.28-5.64,1.92-9.16,1.92Z"/>
      <path class="cls-2" d="M455.78,67.26V25.93h31.35v4.58h-25.75v13.26h20.75v4.52h-20.75v14.4h25.76v4.58h-31.36Z"/>
      <path class="cls-2" d="M515.23,29.89c-4.58,0-8.13,1.47-10.68,4.41-2.54,2.94-3.81,6.98-3.81,12.1s1.33,9.14,3.98,12.22c2.65,3.08,6.23,4.62,10.75,4.62,5.79,0,10.14-2.86,13.05-8.59l4.57,2.29c-1.7,3.56-4.09,6.26-7.17,8.12-3.08,1.86-6.65,2.79-10.72,2.79s-7.77-.86-10.81-2.59c-3.04-1.73-5.36-4.2-6.95-7.42-1.59-3.21-2.39-7.02-2.39-11.42,0-6.59,1.78-11.75,5.34-15.48,3.56-3.73,8.48-5.6,14.78-5.6,4.4,0,8.07.86,11.03,2.58,2.95,1.72,5.12,4.27,6.51,7.65l-5.31,1.76c-.96-2.4-2.5-4.24-4.62-5.51-2.12-1.27-4.64-1.91-7.55-1.91Z"/>
      <path class="cls-2" d="M570.68,67.26l-4.72-12.08h-18.83l-4.75,12.08h-5.81l16.86-41.32h6.37l16.6,41.32h-5.72ZM556.54,30.16l-.26.82c-.49,1.63-1.21,3.71-2.17,6.25l-5.28,13.58h15.46l-5.31-13.64c-.55-1.35-1.09-2.87-1.64-4.58l-.79-2.43Z"/>
    </g>
  </g>
  <g>
    <path class="cls-2" d="M50.59,46.03l-12.66-2.36c-1.83-.34-3.26-1.77-3.6-3.6l-2.36-12.66c-.09-.5-.95-.5-1.04,0l-2.36,12.66c-.34,1.83-1.77,3.26-3.6,3.6l-12.66,2.36c-.25.05-.43.27-.43.52s.18.47.43.52l12.66,2.36c1.83.34,3.26,1.77,3.6,3.6l2.36,12.66c.05.25.27.43.52.43s.47-.18.52-.43l2.36-12.66c.34-1.83,1.77-3.26,3.6-3.6l12.66-2.36c.25-.05.43-.27.43-.52s-.18-.47-.43-.52Z"/>
    <g>
      <path class="cls-1" d="M98.33,24.24c-3.83-6.5-9.19-11.6-16.1-15.3-6.91-3.7-14.93-5.55-24.06-5.55h-25.9v5.68h4.23s21.18,0,21.18,0c8.15,0,15.22,1.6,21.23,4.81,6,3.21,10.65,7.63,13.94,13.27,3.29,5.64,4.94,12.11,4.94,19.43s-1.65,13.8-4.94,19.44c-3.29,5.63-7.94,10.06-13.94,13.27-6.01,3.21-13.08,4.81-21.23,4.81h-14.32s-11.09,0-11.09,0v5.67h25.9c9.13,0,17.15-1.85,24.06-5.55,6.91-3.7,12.28-8.8,16.1-15.3,3.83-6.5,5.74-13.94,5.74-22.33s-1.91-15.83-5.74-22.33Z"/>
      <path class="cls-1" d="M58.16,90.16h-25.9c-.22,0-.39-.17-.39-.39v-5.67c0-.22.18-.39.39-.39h11.02s.05,0,.07,0h14.32c8.03,0,15.11-1.6,21.04-4.77,5.91-3.16,10.55-7.57,13.79-13.12,3.24-5.55,4.88-12.02,4.88-19.24s-1.64-13.68-4.88-19.23c-3.24-5.55-7.88-9.96-13.79-13.12-5.92-3.16-13-4.77-21.04-4.77h-25.41c-.22,0-.39-.17-.39-.39V3.39c0-.22.18-.39.39-.39h25.9c9.16,0,17.32,1.88,24.25,5.6,6.94,3.72,12.41,8.91,16.26,15.45h0c3.84,6.53,5.79,14.11,5.79,22.53s-1.95,16.01-5.79,22.53c-3.85,6.53-9.31,11.73-16.26,15.45-6.94,3.72-15.09,5.6-24.25,5.6ZM32.65,89.37h25.51c9.02,0,17.06-1.85,23.88-5.51,6.81-3.65,12.18-8.75,15.95-15.15,3.77-6.4,5.69-13.85,5.69-22.13s-1.91-15.73-5.69-22.13h0c-3.77-6.41-9.14-11.51-15.95-15.15-6.82-3.65-14.85-5.5-23.88-5.5h-25.51v4.89h25.02c8.17,0,15.37,1.63,21.41,4.86,6.04,3.23,10.78,7.74,14.1,13.41,3.31,5.67,4.99,12.28,4.99,19.63s-1.68,13.96-4.99,19.63c-3.31,5.67-8.05,10.18-14.1,13.41-6.04,3.22-13.25,4.86-21.41,4.86h-14.25s-.05,0-.07,0h-10.7v4.88Z"/>
    </g>
    <g>
      <path class="cls-2" d="M76.78,35.1c-1.97-3.34-4.72-5.96-8.27-7.86-3.55-1.9-7.67-2.85-12.36-2.85h-9.28v2.92h3.23s5.79,0,5.79,0c4.19,0,7.82.82,10.9,2.47,3.08,1.65,5.47,3.92,7.16,6.81,1.69,2.9,2.54,6.22,2.54,9.98s-.85,7.09-2.54,9.99c-1.69,2.89-4.08,5.17-7.16,6.81-3.09,1.65-6.72,2.47-10.9,2.47h-6.41s-2.62,0-2.62,0v2.91h9.28c4.69,0,8.81-.95,12.36-2.85,3.55-1.9,6.31-4.52,8.27-7.86,1.97-3.34,2.95-7.16,2.95-11.47s-.98-8.13-2.95-11.47Z"/>
      <path class="cls-2" d="M56.15,69.86h-9.28c-.61,0-1.1-.49-1.1-1.1v-2.91c0-.61.49-1.1,1.1-1.1h9.03c3.98,0,7.47-.79,10.39-2.35,2.89-1.55,5.15-3.7,6.73-6.4,1.58-2.71,2.39-5.88,2.39-9.43s-.8-6.72-2.39-9.43c-1.58-2.7-3.84-4.85-6.73-6.4-2.91-1.55-6.41-2.34-10.39-2.34h-9.03c-.61,0-1.1-.49-1.1-1.1v-2.92c0-.61.49-1.1,1.1-1.1h9.28c4.85,0,9.19,1,12.88,2.98,3.71,1.99,6.64,4.77,8.7,8.27h0c2.06,3.49,3.1,7.54,3.1,12.03s-1.04,8.54-3.1,12.03c-2.06,3.5-4.99,6.28-8.7,8.27-3.69,1.98-8.02,2.98-12.88,2.98ZM47.96,67.67h8.18c4.49,0,8.47-.92,11.84-2.73,3.35-1.79,5.99-4.3,7.85-7.45,1.86-3.15,2.8-6.82,2.8-10.92s-.94-7.76-2.8-10.91h0c-1.85-3.15-4.49-5.66-7.84-7.45-3.37-1.81-7.36-2.72-11.84-2.72h-8.18v.72h7.93c4.34,0,8.19.87,11.42,2.6,3.26,1.74,5.81,4.17,7.59,7.23,1.78,3.05,2.69,6.6,2.69,10.54s-.9,7.49-2.69,10.54c-1.78,3.06-4.34,5.49-7.59,7.23-3.24,1.73-7.08,2.6-11.42,2.6h-7.93v.72Z"/>
    </g>
  </g>
</svg>