<?xml version="1.0" encoding="UTF-8"?>
<svg id="Capa_1" data-name="Capa 1" xmlns="http://www.w3.org/2000/svg" viewBox="0 0 113.39 113.39">
  <defs>
    <style>
      .cls-1 {
        fill: #004c92;
      }

      .cls-2 {
        fill: #00b3f4;
      }
    </style>
  </defs>
  <path class="cls-2" d="M48.21,56.08l-14.15-2.64c-2.04-.38-3.64-1.98-4.02-4.02l-2.64-14.15c-.1-.56-1.06-.56-1.16,0l-2.64,14.15c-.38,2.04-1.98,3.64-4.02,4.02l-14.15,2.64c-.28.05-.48.3-.48.58s.2.53.48.58l14.15,2.64c2.04.38,3.64,1.98,4.02,4.02l2.64,14.15c.05.28.3.48.58.48s.53-.2.58-.48l2.64-14.15c.38-2.04,1.98-3.64,4.02-4.02l14.15-2.64c.28-.05.48-.3.48-.58s-.2-.53-.48-.58Z"/>
  <g>
    <path class="cls-1" d="M101.6,31.72c-4.28-7.27-10.28-12.97-18.01-17.11-7.73-4.14-16.69-6.21-26.91-6.21h-28.97v6.35h4.73s23.69,0,23.69,0c9.11,0,17.02,1.79,23.74,5.38,6.71,3.59,11.91,8.53,15.59,14.83,3.68,6.3,5.52,13.55,5.52,21.73s-1.84,15.43-5.52,21.74c-3.68,6.3-8.88,11.25-15.59,14.83-6.72,3.59-14.63,5.38-23.74,5.38h-16.01s-12.41,0-12.41,0v6.34h28.97c10.21,0,19.18-2.07,26.91-6.21,7.73-4.14,13.73-9.84,18.01-17.11,4.28-7.26,6.42-15.59,6.42-24.98s-2.14-17.71-6.42-24.97Z"/>
    <path class="cls-1" d="M56.68,105.43h-28.97c-.24,0-.44-.2-.44-.44v-6.34c0-.24.2-.44.44-.44h12.33s.05,0,.08,0h16.01c8.98,0,16.9-1.79,23.53-5.33,6.61-3.54,11.8-8.47,15.42-14.67,3.62-6.21,5.46-13.44,5.46-21.51s-1.84-15.3-5.46-21.51c-3.62-6.2-8.81-11.14-15.42-14.67-6.62-3.54-14.54-5.33-23.53-5.33h-28.42c-.24,0-.44-.2-.44-.44v-6.35c0-.24.2-.44.44-.44h28.97c10.24,0,19.36,2.11,27.12,6.26,7.76,4.16,13.87,9.97,18.18,17.28h0c4.3,7.3,6.48,15.78,6.48,25.2s-2.18,17.9-6.48,25.2c-4.3,7.3-10.42,13.11-18.18,17.28-7.76,4.16-16.88,6.26-27.12,6.26ZM28.15,104.55h28.53c10.09,0,19.07-2.07,26.7-6.16,7.62-4.08,13.62-9.79,17.84-16.95,4.22-7.16,6.36-15.49,6.36-24.75s-2.14-17.59-6.36-24.75h0c-4.22-7.17-10.22-12.87-17.84-16.95-7.62-4.08-16.61-6.16-26.7-6.16h-28.53v5.47h27.98c9.14,0,17.19,1.83,23.94,5.43,6.76,3.61,12.06,8.66,15.76,15,3.7,6.34,5.58,13.73,5.58,21.95s-1.88,15.61-5.58,21.96c-3.7,6.34-9.01,11.39-15.76,15-6.76,3.6-14.81,5.43-23.94,5.43h-15.93s-.05,0-.08,0h-11.97v5.46Z"/>
  </g>
  <g>
    <path class="cls-2" d="M77.5,43.86c-2.2-3.73-5.28-6.66-9.25-8.79-3.97-2.13-8.58-3.19-13.82-3.19h-10.38v3.26h3.62s6.48,0,6.48,0c4.68,0,8.74.92,12.2,2.76,3.45,1.84,6.12,4.38,8.01,7.62,1.89,3.24,2.84,6.96,2.84,11.17s-.95,7.93-2.84,11.17c-1.89,3.24-4.56,5.78-8.01,7.62-3.45,1.84-7.51,2.76-12.2,2.76h-7.16s-2.93,0-2.93,0v3.26h10.38c5.25,0,9.85-1.06,13.82-3.19,3.97-2.13,7.05-5.06,9.25-8.79,2.2-3.73,3.3-8.01,3.3-12.83s-1.1-9.1-3.3-12.83Z"/>
    <path class="cls-2" d="M54.43,82.73h-10.38c-.68,0-1.23-.55-1.23-1.23v-3.26c0-.68.55-1.23,1.23-1.23h10.1c4.45,0,8.36-.88,11.62-2.62,3.23-1.73,5.76-4.14,7.53-7.16,1.77-3.03,2.67-6.58,2.67-10.55s-.9-7.51-2.67-10.55c-1.76-3.02-4.3-5.43-7.53-7.16-3.26-1.74-7.17-2.62-11.62-2.62h-10.1c-.68,0-1.23-.55-1.23-1.23v-3.26c0-.68.55-1.23,1.23-1.23h10.38c5.43,0,10.27,1.12,14.4,3.33,4.15,2.22,7.42,5.34,9.73,9.25h0c2.3,3.91,3.47,8.43,3.47,13.45s-1.17,9.55-3.47,13.46c-2.3,3.91-5.58,7.02-9.73,9.25-4.13,2.22-8.97,3.34-14.4,3.34ZM45.27,80.28h9.15c5.02,0,9.48-1.03,13.24-3.05,3.75-2.01,6.7-4.81,8.77-8.33,2.08-3.52,3.13-7.63,3.13-12.21s-1.05-8.68-3.13-12.2h0c-2.07-3.52-5.02-6.33-8.77-8.33-3.77-2.02-8.23-3.05-13.24-3.05h-9.15v.81h8.87c4.86,0,9.16.98,12.77,2.91,3.64,1.95,6.5,4.67,8.49,8.08,1.99,3.42,3,7.38,3,11.79s-1.01,8.37-3,11.79c-2,3.42-4.85,6.14-8.49,8.09-3.62,1.93-7.92,2.91-12.77,2.91h-8.87v.81Z"/>
  </g>
</svg>