<?xml version="1.0" encoding="UTF-8"?>
<svg id="Capa_1" data-name="Capa 1" xmlns="http://www.w3.org/2000/svg" xmlns:xlink="http://www.w3.org/1999/xlink" viewBox="0 0 99.21 99.21">
  <defs>
    <style>
      .cls-1 {
        fill: url(#Degradado_sin_nombre_726);
      }
    </style>
    <linearGradient id="Degradado_sin_nombre_726" data-name="Degradado sin nombre 726" x1="8.65" y1="49.61" x2="90.56" y2="49.61" gradientUnits="userSpaceOnUse">
      <stop offset="0" stop-color="#0d91cb"/>
      <stop offset="1" stop-color="#00478f"/>
    </linearGradient>
  </defs>
  <path class="cls-1" d="M79.62,58.42c1.27-2.91,2.04-5.9,2.29-8.91.5-6-1.02-11.12-4.41-14.81-3.29-3.57-8.13-5.54-13.64-5.54-2.01,0-4,.38-5.89,1.14-2.64,1.06-5.54,1.05-8.17,0-1.89-.76-3.88-1.14-5.89-1.14-10.85,0-18.14,7.29-18.14,18.15,0,4.08,1.04,8.43,2.92,12.27,0,0,0,.01,0,.02l-.14.12c-3.32,2.97-8.73,2.97-12.06,0l-.06-.05v-23.83h8.06c.57,0,1.04-.47,1.04-1.04s-.47-1.04-1.04-1.04h-8.06v-3.63h8.06c.57,0,1.04-.47,1.04-1.04s-.47-1.04-1.04-1.04h-8.06v-3.63h8.06c.57,0,1.04-.47,1.04-1.04s-.47-1.04-1.04-1.04h-8.06v-3.63h8.06c.57,0,1.04-.47,1.04-1.04s-.47-1.04-1.04-1.04h-8.06v-3.63h8.06c.57,0,1.04-.47,1.04-1.04s-.47-1.04-1.04-1.04h-14.8c-.57,0-1.04.47-1.04,1.04v75.22c0,.57.47,1.04,1.04,1.04h5.7c.57,0,1.04-.47,1.04-1.04v-24.96c1.77,1.13,3.87,1.75,6.09,1.75,2.65,0,5.14-.88,7.07-2.47,2.6,5.77,4.33,11.85,5.15,18.11l.38,2.91c.42,3.25,3.21,5.69,6.48,5.69,2.69,0,5.07-1.61,6.07-4.11l3.26-8.15c.49-1.21,1.64-1.99,2.95-1.99s2.46.78,2.95,1.99l3.26,8.15c1,2.5,3.38,4.11,6.07,4.11,3.27,0,6.06-2.45,6.48-5.69l.38-2.91c.87-6.64,2.77-13.09,5.65-19.19h.09c5.36,0,9.71,4.36,9.71,9.71v.65c0,.57.47,1.04,1.04,1.04s1.04-.47,1.04-1.04v-.65c0-6.22-4.84-11.31-10.94-11.75ZM14.35,17.7v68.48h-3.63V13.03h3.63v4.66ZM77.19,58.72c-3.2,6.54-5.29,13.49-6.23,20.66l-.38,2.91c-.29,2.21-2.19,3.89-4.42,3.89-1.83,0-3.46-1.1-4.14-2.8l-3.26-8.15c-.8-2-2.72-3.3-4.87-3.3s-4.07,1.3-4.87,3.3l-3.26,8.15c-.68,1.7-2.31,2.8-4.14,2.8-2.23,0-4.13-1.67-4.42-3.88l-.38-2.91c-.94-7.19-3.05-14.17-6.26-20.72-1.75-3.56-2.71-7.59-2.71-11.36,0-9.61,6.46-16.07,16.07-16.07,1.75,0,3.47.33,5.12.99,3.13,1.25,6.58,1.25,9.72,0,1.65-.66,3.37-.99,5.12-.99,4.92,0,9.22,1.73,12.11,4.87,2.99,3.25,4.32,7.82,3.87,13.23-.27,3.18-1.16,6.34-2.65,9.39ZM46.37,45.88c0-2.15-1.75-3.89-3.89-3.89s-3.89,1.74-3.89,3.89,1.74,3.89,3.89,3.89,3.89-1.74,3.89-3.89ZM42.48,47.69c-1,0-1.81-.81-1.81-1.81s.81-1.81,1.81-1.81,1.81.81,1.81,1.81-.81,1.81-1.81,1.81ZM65.29,41.99c-2.14,0-3.89,1.74-3.89,3.89s1.75,3.89,3.89,3.89,3.89-1.74,3.89-3.89-1.75-3.89-3.89-3.89ZM65.29,47.69c-1,0-1.81-.81-1.81-1.81s.81-1.81,1.81-1.81,1.81.81,1.81,1.81-.81,1.81-1.81,1.81ZM62.44,53.39h-17.11c-.57,0-1.04.47-1.04,1.04,0,5.29,4.3,9.59,9.59,9.59s9.59-4.3,9.59-9.59c0-.57-.47-1.04-1.04-1.04ZM53.88,61.95c-3.73,0-6.93-2.82-7.44-6.48h14.89c-.51,3.66-3.71,6.48-7.44,6.48Z"/>
</svg>