<?xml version="1.0" encoding="UTF-8"?>
<svg id="Capa_1" data-name="Capa 1" xmlns="http://www.w3.org/2000/svg" xmlns:xlink="http://www.w3.org/1999/xlink" viewBox="0 0 99.21 99.21">
  <defs>
    <style>
      .cls-1 {
        fill: url(#Degradado_sin_nombre_726);
      }
    </style>
    <linearGradient id="Degradado_sin_nombre_726" data-name="Degradado sin nombre 726" x1="11.52" y1="49.61" x2="87.69" y2="49.61" gradientUnits="userSpaceOnUse">
      <stop offset="0" stop-color="#0d91cb"/>
      <stop offset="1" stop-color="#00478f"/>
    </linearGradient>
  </defs>
  <path class="cls-1" d="M87.68,73.21c-.07-1.32-.65-2.53-1.63-3.41l-7.64-6.88V18.63c0-1.32-.35-2.62-1.01-3.74-1.18-2.01-3.22-3.24-5.6-3.36-2.47-.12-4.89,1.01-6.3,2.92l-5.03,5.61c-5.26-4.52-13.2-4.3-18.18.68-.18.18-.28.42-.28.68s.1.5.28.68l17.57,17.57c.18.18.42.28.68.28s.5-.1.68-.28c2.53-2.53,3.92-5.89,3.92-9.47,0-3.27-1.17-6.35-3.3-8.79l5.16-5.76c1.09-1.47,2.85-2.3,4.7-2.21,1.72.09,3.19.97,4.03,2.41.49.84.74,1.77.74,2.76v42.54l-3.68-3.31c-.91-.82-2.08-1.27-3.31-1.27h-30.85v-6.02h13.62c.53,0,.97-.43.97-.97s-.43-.97-.97-.97h-14.58c-.53,0-.97.43-.97.97v6.99h-2.18l-14.44-15.65c-1.79-1.93-5.05-2.06-6.98-.28-.97.9-1.53,2.12-1.59,3.43-.05,1.32.41,2.58,1.31,3.55l15.91,17.23c.93,1.01,2.26,1.59,3.63,1.59h16.27v13.98h-6.99c-.53,0-.97.43-.97.97v5.3c0,.53.43.97.97.97h15.91c.53,0,.97-.43.97-.97v-5.3c0-.53-.43-.97-.97-.97h-6.99v-13.98h17.02l8.88,8v12.25c0,.53.43.97.97.97s.97-.43.97-.97v-10.51l1.03.92c.91.82,2.08,1.27,3.31,1.27,1.4,0,2.74-.6,3.68-1.64.88-.98,1.33-2.25,1.26-3.57ZM60.52,37.61l-16.15-16.15c4.53-3.83,11.27-3.57,15.49.65,4.22,4.22,4.48,10.97.65,15.49ZM56.6,85.76h-13.98v-3.37h13.98v3.37ZM84.99,75.48c-.51.56-1.27.91-2.08.95-.82.04-1.61-.22-2.17-.73l-12.12-10.91c-.18-.16-.41-.25-.64-.25h-35.59c-.84,0-1.64-.35-2.21-.97l-15.91-17.23c-.55-.59-.83-1.36-.79-2.17.03-.8.37-1.54.96-2.09.56-.51,1.28-.8,2.04-.8.84,0,1.64.35,2.21.97l14.73,15.95c.18.2.44.31.71.31h35.38c.75,0,1.46.27,2.02.77l13.26,11.93c.6.54.95,1.28.99,2.08.04.8-.23,1.57-.77,2.17Z"/>
</svg>