<?xml version="1.0" encoding="UTF-8"?>
<svg id="Capa_1" xmlns="http://www.w3.org/2000/svg" version="1.1" viewBox="0 0 32 32">
  <!-- Generator: Adobe Illustrator 29.8.2, SVG Export Plug-In . SVG Version: 2.1.1 Build 3)  -->
  <defs>
    <style>
      .st0 {
        fill: #004c92;
      }

      .st1 {
        fill: #00b3f4;
      }
    </style>
  </defs>
  <path class="st1" d="M13.4,15.81l-4.33-.81c-.63-.12-1.12-.61-1.23-1.23l-.81-4.33c-.03-.17-.32-.17-.36,0l-.81,4.33c-.12.63-.61,1.12-1.23,1.23l-4.33.81c-.09.02-.15.09-.15.18s.06.16.15.18l4.33.81c.63.12,1.12.61,1.23,1.23l.81,4.33c.02.09.09.15.18.15s.16-.06.18-.15l.81-4.33c.12-.63.61-1.12,1.23-1.23l4.33-.81c.09-.02.15-.09.15-.18s-.06-.16-.15-.18Z"/>
  <g>
    <path class="st0" d="M29.75,8.35c-1.31-2.23-3.15-3.97-5.52-5.24-2.37-1.27-5.11-1.9-8.24-1.9H7.12v1.94h1.45s7.26,0,7.26,0c2.79,0,5.21.55,7.27,1.65,2.06,1.1,3.65,2.61,4.77,4.54,1.13,1.93,1.69,4.15,1.69,6.66s-.56,4.73-1.69,6.66c-1.13,1.93-2.72,3.44-4.77,4.54-2.06,1.1-4.48,1.65-7.27,1.65h-4.9s-3.8,0-3.8,0v1.94h8.87c3.13,0,5.88-.63,8.24-1.9,2.37-1.27,4.21-3.01,5.52-5.24,1.31-2.22,1.97-4.77,1.97-7.65s-.66-5.42-1.97-7.65Z"/>
    <path class="st0" d="M16,30.93H7.12c-.07,0-.13-.06-.13-.13v-1.94c0-.07.06-.13.13-.13h3.78s.02,0,.02,0h4.9c2.75,0,5.18-.55,7.21-1.63,2.02-1.08,3.61-2.59,4.72-4.49,1.11-1.9,1.67-4.12,1.67-6.59s-.56-4.69-1.67-6.59c-1.11-1.9-2.7-3.41-4.72-4.49-2.03-1.08-4.45-1.63-7.21-1.63H7.12c-.07,0-.13-.06-.13-.13v-1.94c0-.07.06-.13.13-.13h8.87c3.14,0,5.93.64,8.3,1.92,2.38,1.27,4.25,3.05,5.57,5.29h0c1.32,2.24,1.98,4.83,1.98,7.72s-.67,5.48-1.98,7.72c-1.32,2.24-3.19,4.02-5.57,5.29-2.38,1.27-5.17,1.92-8.3,1.92ZM7.26,30.66h8.74c3.09,0,5.84-.63,8.18-1.89,2.33-1.25,4.17-3,5.46-5.19,1.29-2.19,1.95-4.74,1.95-7.58s-.66-5.39-1.95-7.58h0c-1.29-2.2-3.13-3.94-5.46-5.19-2.33-1.25-5.09-1.89-8.18-1.89H7.26v1.68h8.57c2.8,0,5.27.56,7.33,1.66,2.07,1.11,3.69,2.65,4.83,4.59,1.13,1.94,1.71,4.21,1.71,6.72s-.58,4.78-1.71,6.73c-1.13,1.94-2.76,3.49-4.83,4.59-2.07,1.1-4.54,1.66-7.33,1.66h-4.88s-.02,0-.02,0h-3.67v1.67Z"/>
  </g>
  <g>
    <path class="st1" d="M22.37,12.07c-.67-1.14-1.62-2.04-2.83-2.69-1.22-.65-2.63-.98-4.23-.98h-3.18v1h1.11s1.98,0,1.98,0c1.43,0,2.68.28,3.73.85,1.06.56,1.87,1.34,2.45,2.33.58.99.87,2.13.87,3.42s-.29,2.43-.87,3.42-1.4,1.77-2.45,2.33c-1.06.56-2.3.85-3.73.85h-2.19s-.9,0-.9,0v1h3.18c1.61,0,3.02-.33,4.23-.98,1.22-.65,2.16-1.55,2.83-2.69.67-1.14,1.01-2.45,1.01-3.93s-.34-2.79-1.01-3.93Z"/>
    <path class="st1" d="M15.31,23.98h-3.18c-.21,0-.38-.17-.38-.38v-1c0-.21.17-.38.38-.38h3.09c1.36,0,2.56-.27,3.56-.8.99-.53,1.76-1.27,2.3-2.19.54-.93.82-2.02.82-3.23s-.27-2.3-.82-3.23c-.54-.92-1.32-1.66-2.31-2.19-1-.53-2.19-.8-3.56-.8h-3.09c-.21,0-.38-.17-.38-.38v-1c0-.21.17-.38.38-.38h3.18c1.66,0,3.15.34,4.41,1.02,1.27.68,2.27,1.63,2.98,2.83h0c.7,1.2,1.06,2.58,1.06,4.12s-.36,2.93-1.06,4.12c-.71,1.2-1.71,2.15-2.98,2.83-1.26.68-2.75,1.02-4.41,1.02ZM12.5,23.22h2.8c1.54,0,2.9-.31,4.06-.93,1.15-.61,2.05-1.47,2.69-2.55.64-1.08.96-2.34.96-3.74s-.32-2.66-.96-3.74h0c-.63-1.08-1.54-1.94-2.69-2.55-1.15-.62-2.52-.93-4.06-.93h-2.8v.25h2.72c1.49,0,2.8.3,3.91.89,1.12.6,1.99,1.43,2.6,2.48.61,1.05.92,2.26.92,3.61s-.31,2.56-.92,3.61c-.61,1.05-1.49,1.88-2.6,2.48-1.11.59-2.42.89-3.91.89h-2.72v.25Z"/>
  </g>
</svg>