<?xml version="1.0" encoding="UTF-8"?>
<svg id="Capa_1" data-name="Capa 1" xmlns="http://www.w3.org/2000/svg" xmlns:xlink="http://www.w3.org/1999/xlink" viewBox="0 0 102.86 112.58">
  <defs>
    <style>
      .cls-1 {
        fill: url(#linear-gradient);
      }

      .cls-2 {
        fill: #004c92;
      }
    </style>
    <linearGradient id="linear-gradient" x1="22.7" y1="56.29" x2="74.44" y2="56.29" gradientUnits="userSpaceOnUse">
      <stop offset="0" stop-color="#f7f7f7"/>
      <stop offset=".29" stop-color="#fcfcfc"/>
      <stop offset="1" stop-color="#fff"/>
    </linearGradient>
  </defs>
  <circle class="cls-2" cx="51.43" cy="56.29" r="48.18"/>
  <g>
    <path class="cls-1" d="M81.03,74.03c2.51-3.2,3.88-7,3.88-10.93,0-7.02-4.37-13.48-11.41-16.92-1.55-5.07-5.04-9.61-9.9-12.84-5-3.33-11.02-5.09-17.42-5.09-7.34,0-14.29,2.37-19.56,6.66-5.59,4.56-8.67,10.72-8.67,17.36,0,5,1.81,9.85,5.14,13.87l-1.35,7.16c-.31,1.67.3,3.38,1.58,4.4.74.59,1.63.9,2.53.9.65,0,1.31-.16,1.91-.49l7.08-3.82c3.48,1.29,7.17,1.96,11.02,2,.26.42.59.79.98,1.1,4.19,3.34,9.66,5.18,15.41,5.18,2.95,0,5.89-.5,8.62-1.45l5.07,2.73c.6.32,1.25.48,1.9.48.9,0,1.79-.3,2.53-.9,1.28-1.02,1.9-2.73,1.59-4.4l-.94-5.01Z"/>
    <g>
      <path class="cls-2" d="M80.33,63.1c0-5.53-3.66-10.36-9.12-12.97.32,1.2.51,2.45.53,3.73.55.34,1.08.71,1.57,1.12,2.75,2.24,4.27,5.13,4.27,8.13s-1.52,5.88-4.27,8.13c-3.02,2.46-7.08,3.82-11.44,3.82-2.94,0-5.73-.61-8.17-1.77-1.53.31-3.1.51-4.72.58,3.33,2.65,7.87,4.28,12.89,4.28,3.22,0,6.24-.68,8.88-1.85l6.71,3.62-1.35-7.24c2.63-2.6,4.21-5.92,4.21-9.56h0ZM80.33,63.1"/>
      <path class="cls-2" d="M69.84,51.82c-.03-1.28-.22-2.53-.54-3.73-2.34-8.81-11.97-15.42-23.49-15.42-13.28,0-24.04,8.77-24.04,19.59,0,4.73,2.06,9.08,5.49,12.46l-1.77,9.44,8.75-4.72c3.44,1.54,7.38,2.42,11.57,2.42.43,0,.85-.01,1.28-.03,1.61-.06,3.19-.26,4.71-.58,10.38-2.17,18.05-9.84,18.05-18.98,0-.15,0-.29,0-.44h0ZM34.46,55.49c-1.93,0-3.5-1.65-3.5-3.69s1.57-3.7,3.5-3.7,3.5,1.66,3.5,3.7-1.56,3.69-3.5,3.69h0ZM45.81,55.49c-1.94,0-3.5-1.65-3.5-3.69s1.56-3.7,3.5-3.7,3.5,1.66,3.5,3.7-1.57,3.69-3.5,3.69h0ZM57.14,55.49c-1.93,0-3.5-1.65-3.5-3.69s1.57-3.7,3.5-3.7,3.5,1.66,3.5,3.7-1.56,3.69-3.5,3.69h0ZM57.14,55.49"/>
    </g>
  </g>
</svg>