<?xml version="1.0" encoding="UTF-8"?>
<svg id="Capa_1" data-name="Capa 1" xmlns="http://www.w3.org/2000/svg" xmlns:xlink="http://www.w3.org/1999/xlink" viewBox="0 0 99.21 99.21">
  <defs>
    <style>
      .cls-1 {
        fill: url(#Degradado_sin_nombre_726);
      }
    </style>
    <linearGradient id="Degradado_sin_nombre_726" data-name="Degradado sin nombre 726" x1="11.52" y1="49.61" x2="87.69" y2="49.61" gradientUnits="userSpaceOnUse">
      <stop offset="0" stop-color="#0d91cb"/>
      <stop offset="1" stop-color="#00478f"/>
    </linearGradient>
  </defs>
  <path class="cls-1" d="M65.51,11.52c-3.63,0-7.24.9-10.43,2.61-3.38,1.81-7.58,1.81-10.97,0-3.19-1.71-6.79-2.61-10.43-2.61-12.23,0-22.18,9.95-22.18,22.18,0,4.88,1.68,13.12,4.79,18.78,2.43,4.42,4.04,8.87,4.8,13.21l2.95,16.98c.51,2.91,3.02,5.02,5.97,5.02,2.61,0,4.92-1.66,5.75-4.14l4.28-7.21c1.37-4.12,5.21-6.89,9.55-6.89s8.18,2.77,9.55,6.89l4.28,7.21c.83,2.48,3.14,4.14,5.75,4.14,2.95,0,5.46-2.11,5.97-5.02l2.95-16.98c.76-4.35,2.37-8.79,4.8-13.21,3.11-5.66,4.79-13.9,4.79-18.78,0-12.23-9.95-22.18-22.18-22.18ZM81.21,51.55c-2.53,4.61-4.22,9.26-5.01,13.81l-2.95,16.98c-.35,1.98-2.06,3.42-4.07,3.42-1.78,0-3.35-1.13-3.91-2.82l-4.28-7.21c-1.64-4.91-6.21-8.21-11.39-8.21s-9.75,3.3-11.39,8.21l-4.28,7.21c-.56,1.69-2.14,2.82-3.91,2.82-2.01,0-3.72-1.44-4.07-3.42l-2.95-16.98c-.79-4.55-2.48-9.2-5.01-13.81-2.95-5.38-4.55-13.21-4.55-17.85,0-11.16,9.08-20.24,20.24-20.24,3.31,0,6.6.82,9.51,2.38,3.94,2.12,8.84,2.12,12.79,0,2.91-1.56,6.2-2.38,9.51-2.38,11.16,0,20.24,9.08,20.24,20.24,0,4.64-1.59,12.47-4.55,17.85ZM60.21,47.94h-21.21c-.53,0-.97.43-.97.97,0,6.38,5.19,11.57,11.57,11.57s11.57-5.19,11.57-11.57c0-.53-.43-.97-.97-.97ZM49.61,58.54c-4.95,0-9.1-3.78-9.59-8.67h19.18c-.49,4.89-4.64,8.67-9.59,8.67ZM64.3,28.22c-3.02,0-5.48,2.46-5.48,5.48s2.46,5.48,5.48,5.48,5.48-2.46,5.48-5.48-2.46-5.48-5.48-5.48ZM64.3,37.04c-1.84,0-3.34-1.5-3.34-3.34s1.5-3.34,3.34-3.34,3.34,1.5,3.34,3.34-1.5,3.34-3.34,3.34ZM40.39,33.7c0-3.02-2.46-5.48-5.48-5.48s-5.48,2.46-5.48,5.48,2.46,5.48,5.48,5.48,5.48-2.46,5.48-5.48ZM34.91,37.04c-1.84,0-3.34-1.5-3.34-3.34s1.5-3.34,3.34-3.34,3.34,1.5,3.34,3.34-1.5,3.34-3.34,3.34Z"/>
</svg>