<?xml version="1.0" encoding="UTF-8"?>
<svg id="Capa_1" data-name="Capa 1" xmlns="http://www.w3.org/2000/svg" viewBox="0 0 85.04 85.04">
  <defs>
    <style>
      .cls-1 {
        fill: #00377b;
      }

      .cls-2 {
        fill: #FFFFFF;
      ; stroke: #00377b; stroke-width: 3; stroke-linejoin: round; stroke-miterlimit: 10; }
    </style>
  </defs>
  <g>
    <path class="cls-1" d="M79.92,42.69c.11,14.75-8.55,29.59-22.42,35.33-24.5,10.48-51.83-9.31-52.35-35.33-.64-15.12,9.01-29.78,22.99-35.54,25.59-10.61,51.89,8.37,51.78,35.54ZM79.62,42.69c-.07-9.54-4.28-19.01-11.37-25.37C49.97.35,19.9,5.95,9.9,29.05c-8.14,18.25.25,39.87,19.17,46.96,23.06,8.8,50.52-7.96,50.55-33.32Z"/>
    <path class="cls-2" d="M68.25,17.32c7.09,6.36,11.3,15.83,11.37,25.37-.04,25.36-27.49,42.11-50.55,33.32C10.14,68.92,1.76,47.3,9.9,29.05,19.9,5.95,49.97.35,68.25,17.32Z"/>
  </g>
  <path class="cls-1" d="M46.38,64.92v-19.44h6.48l1.23-8.04h-7.72v-5.22c0-2.2,1.08-4.34,4.53-4.34h3.51v-6.85s-3.18-.54-6.23-.54c-6.35,0-10.51,3.85-10.51,10.82v6.13h-7.06v8.04h7.06v19.44h8.69Z"/>
</svg>