<?xml version="1.0" encoding="UTF-8"?>
<svg id="Capa_1" data-name="Capa 1" xmlns="http://www.w3.org/2000/svg" viewBox="0 0 85.04 85.04">
  <defs>
    <style>
      .cls-1 {
        fill: #00377b;
      }

      .cls-2 {
        fill: #00b3f4;
      }
    </style>
  </defs>
  <g>
    <path class="cls-1" d="M79.92,42.69c.11,14.75-8.55,29.59-22.42,35.33-24.5,10.48-51.83-9.31-52.35-35.33-.64-15.12,9.01-29.78,22.99-35.54,25.59-10.61,51.89,8.37,51.78,35.54ZM79.62,42.69c-.07-9.54-4.28-19.01-11.37-25.37C49.97.35,19.9,5.95,9.9,29.05c-8.14,18.25.25,39.87,19.17,46.96,23.06,8.8,50.52-7.96,50.55-33.32Z"/>
    <path class="cls-2" d="M68.25,17.32c7.09,6.36,11.3,15.83,11.37,25.37-.04,25.36-27.49,42.11-50.55,33.32C10.14,68.92,1.76,47.3,9.9,29.05,19.9,5.95,49.97.35,68.25,17.32Z"/>
  </g>
  <g>
    <path class="cls-1" d="M54.05,28.52c-1.41,0-2.55,1.14-2.55,2.55s1.14,2.55,2.55,2.55,2.55-1.14,2.55-2.55-1.14-2.55-2.55-2.55Z"/>
    <path class="cls-1" d="M42.7,31.79c-5.91,0-10.73,4.81-10.73,10.73s4.81,10.73,10.73,10.73,10.73-4.81,10.73-10.73-4.81-10.73-10.73-10.73ZM42.7,49.39c-3.79,0-6.87-3.08-6.87-6.87s3.08-6.87,6.87-6.87,6.87,3.08,6.87,6.87-3.08,6.87-6.87,6.87Z"/>
    <path class="cls-1" d="M51.21,64.29h-17.39c-7.21,0-13.08-5.87-13.08-13.08v-17.39c0-7.21,5.87-13.08,13.08-13.08h17.39c7.21,0,13.08,5.87,13.08,13.08v17.39c0,7.21-5.87,13.08-13.08,13.08ZM33.83,24.84c-4.95,0-8.98,4.03-8.98,8.98v17.39c0,4.95,4.03,8.98,8.98,8.98h17.39c4.95,0,8.98-4.03,8.98-8.98v-17.39c0-4.95-4.03-8.98-8.98-8.98h-17.39Z"/>
  </g>
</svg>