<?xml version="1.0" encoding="UTF-8"?>
<svg id="Capa_1" data-name="Capa 1" xmlns="http://www.w3.org/2000/svg" viewBox="0 0 85.04 85.04">
  <defs>
    <style>
      .cls-1 {
        fill: #00377b;
      }

      .cls-2 {
        fill: #00b3f4;
      }
    </style>
  </defs>
  <g>
    <path class="cls-1" d="M79.92,42.69c.11,14.75-8.55,29.59-22.42,35.33-24.5,10.48-51.83-9.31-52.35-35.33-.64-15.12,9.01-29.78,22.99-35.54,25.59-10.61,51.89,8.37,51.78,35.54ZM79.62,42.69c-.07-9.54-4.28-19.01-11.37-25.37C49.97.35,19.9,5.95,9.9,29.05c-8.14,18.25.25,39.87,19.17,46.96,23.06,8.8,50.52-7.96,50.55-33.32Z"/>
    <path class="cls-2" d="M68.25,17.32c7.09,6.36,11.3,15.83,11.37,25.37-.04,25.36-27.49,42.11-50.55,33.32C10.14,68.92,1.76,47.3,9.9,29.05,19.9,5.95,49.97.35,68.25,17.32Z"/>
  </g>
  <path class="cls-1" d="M26.61,35.31h7.88v25.33h-7.88v-25.33ZM30.55,22.73c2.52,0,4.56,2.05,4.56,4.56s-2.04,4.57-4.56,4.57-4.57-2.05-4.57-4.57,2.04-4.56,4.57-4.56M39.43,60.64h7.87v-12.53c0-3.3.62-6.5,4.72-6.5s4.09,3.78,4.09,6.72v12.31h7.87v-13.89c0-6.82-1.47-12.06-9.44-12.06-3.83,0-6.4,2.1-7.46,4.09h-.1v-3.46h-7.55v25.33Z"/>
</svg>