<?xml version="1.0" encoding="UTF-8"?>
<svg id="Capa_1" data-name="Capa 1" xmlns="http://www.w3.org/2000/svg" xmlns:xlink="http://www.w3.org/1999/xlink" viewBox="0 0 99.21 99.21">
  <defs>
    <style>
      .cls-1 {
        fill: url(#Degradado_sin_nombre_726);
      }
    </style>
    <linearGradient id="Degradado_sin_nombre_726" data-name="Degradado sin nombre 726" x1="11.52" y1="49.61" x2="87.69" y2="49.61" gradientUnits="userSpaceOnUse">
      <stop offset="0" stop-color="#0d91cb"/>
      <stop offset="1" stop-color="#00478f"/>
    </linearGradient>
  </defs>
  <path class="cls-1" d="M86.43,19.27c-.8-.68-1.86-.98-2.93-.82-22.49,3.59-45.29,3.59-67.78,0-1.06-.16-2.13.14-2.93.82-.8.68-1.26,1.68-1.26,2.74v7.49c0,3.53,2.1,6.72,5.3,8.15v7.21c0,.45.3.83.74.94,1.59.38,3.22.57,4.87.57,1.23,0,2.46-.11,3.67-.32v.06c0,.45.3.84.74.94,1.8.43,3.66.65,5.53.65,1.46,0,2.91-.14,4.34-.4v.06c0,.45.3.84.74.94,2.02.48,4.1.73,6.19.73s4.02-.23,5.97-.68c1.95.45,3.95.68,5.97.68s4.17-.25,6.19-.73c.44-.1.74-.49.74-.94v-.06c1.42.26,2.88.4,4.34.4,1.87,0,3.73-.22,5.53-.65.44-.1.74-.49.74-.94v-.06c1.21.22,2.44.32,3.67.32,1.64,0,3.28-.19,4.87-.57.44-.1.74-.49.74-.94v-7.21c3.2-1.42,5.3-4.61,5.3-8.15v-7.49c0-1.06-.46-2.05-1.26-2.74ZM26.1,36.12v7.95c-2.41.47-4.94.47-7.35,0v-8.62c0-2.03,1.65-3.67,3.67-3.67s3.67,1.65,3.67,3.67v.66ZM36.71,36.78v8.54c-2.84.58-5.83.58-8.67,0v-9.2c0-2.39,1.95-4.34,4.34-4.34s4.34,1.95,4.34,4.34v.66ZM48.64,46.57c-3.28.68-6.72.68-10,0v-9.79c0-2.76,2.24-5,5-5s5,2.24,5,5v9.79ZM60.57,46.1v.47c-3.28.68-6.72.68-10,0v-9.79c0-2.76,2.24-5,5-5s5,2.24,5,5v9.31ZM71.18,44.85v.47c-2.84.58-5.83.58-8.67,0v-9.2c0-2.39,1.95-4.34,4.34-4.34s4.34,1.95,4.34,4.34v8.73ZM80.46,36.98v7.09c-2.41.47-4.94.47-7.35,0v-8.62c0-2.03,1.65-3.67,3.67-3.67s3.67,1.65,3.67,3.67v1.53ZM85.76,29.49c0,2.46-1.28,4.71-3.37,5.97h0c0-3.1-2.51-5.61-5.61-5.61-.23,0-.45.02-.68.04-.05,0-.1.01-.14.02-.19.03-.38.07-.56.11-.03,0-.06.02-.09.02-.68.19-1.31.49-1.86.9-.01,0-.03.02-.04.03-.18.13-.35.28-.51.43,0,0-.01.01-.02.02-.16.16-.32.33-.46.51-.02.03-.04.06-.06.08-.11.14-.21.29-.31.44-.02.03-.04.05-.06.08-.02-.03-.05-.06-.08-.1-.11-.15-.22-.29-.34-.43-.05-.05-.09-.11-.14-.16-.12-.13-.24-.25-.37-.37-.04-.04-.09-.08-.13-.12-.54-.46-1.15-.84-1.82-1.1-.04-.02-.08-.03-.12-.04-.18-.07-.37-.12-.55-.17-.05-.01-.11-.03-.16-.04-.18-.04-.36-.08-.55-.1-.06,0-.11-.02-.17-.03-.24-.03-.48-.04-.72-.04-.26,0-.51.02-.77.05-.06,0-.13.02-.19.03-.2.03-.4.07-.6.12-.05.01-.1.02-.15.04-.5.14-.97.34-1.41.6-.04.02-.07.04-.1.06-.19.11-.36.23-.54.36-.04.03-.08.06-.12.09-.2.16-.39.32-.57.5,0,0-.01.01-.02.02-.17.17-.32.35-.47.54-.04.06-.09.11-.13.17-.12.16-.22.32-.32.49-.02.04-.05.07-.07.1-.01-.02-.02-.03-.04-.05-.14-.21-.29-.42-.46-.62-.05-.06-.1-.11-.15-.17-.12-.14-.25-.27-.38-.4-.07-.07-.15-.14-.23-.21-.12-.11-.25-.21-.38-.31-.08-.06-.16-.12-.24-.18-.18-.12-.36-.24-.55-.35-.03-.02-.06-.04-.1-.06-.23-.12-.46-.23-.7-.33-.07-.03-.14-.05-.21-.08-.18-.07-.36-.13-.54-.18-.08-.02-.16-.04-.25-.06-.19-.04-.37-.08-.56-.11-.08-.01-.15-.03-.23-.04-.27-.03-.53-.05-.81-.05s-.57.02-.84.06c-.06,0-.12.02-.18.03-.24.04-.47.08-.7.14-.04,0-.07.02-.11.03-.85.23-1.64.63-2.32,1.14-.01.01-.03.02-.04.03-.46.35-.87.75-1.22,1.2-.03.04-.07.09-.1.13-.13.17-.25.35-.37.54-.02.04-.05.07-.08.11-.02-.04-.05-.07-.07-.11-.12-.19-.24-.37-.38-.55-.03-.04-.06-.08-.09-.12-.36-.45-.77-.85-1.23-1.2-.01,0-.02-.02-.04-.03-.69-.52-1.47-.91-2.32-1.14-.04,0-.07-.02-.11-.03-.23-.06-.46-.11-.7-.14-.06,0-.12-.02-.18-.03-.28-.03-.56-.06-.84-.06s-.54.02-.81.05c-.08,0-.15.02-.23.04-.19.03-.38.06-.56.11-.08.02-.17.04-.25.06-.18.05-.37.11-.54.18-.07.03-.14.05-.21.08-.24.1-.47.2-.7.33-.04.02-.07.04-.1.06-.19.11-.37.22-.55.34-.08.06-.16.12-.24.18-.13.1-.25.2-.37.3-.08.07-.16.14-.23.21-.13.12-.25.25-.37.39-.05.06-.11.11-.16.18-.16.2-.31.4-.45.61-.01.02-.03.03-.04.05-.02-.03-.04-.06-.06-.09-.1-.17-.22-.34-.34-.51-.04-.05-.08-.11-.12-.16-.15-.19-.31-.38-.48-.55,0,0,0,0,0,0-.18-.18-.37-.35-.57-.51-.04-.03-.08-.06-.11-.08-.17-.13-.35-.25-.54-.37-.03-.02-.07-.04-.1-.06-.44-.25-.91-.45-1.41-.6-.05-.01-.1-.03-.15-.04-.2-.05-.4-.09-.6-.12-.06,0-.13-.02-.19-.03-.25-.03-.51-.05-.77-.05-.24,0-.48.02-.72.04-.06,0-.11.02-.17.03-.19.03-.37.06-.55.1-.05.01-.11.03-.16.04-.19.05-.37.11-.55.17-.04.01-.08.03-.12.04-.22.08-.43.18-.63.29,0,0,0,0,0,0-.22.12-.44.25-.64.39,0,0,0,0,0,0-.19.13-.37.27-.54.42-.05.04-.09.08-.14.13-.12.11-.24.23-.36.36-.05.06-.1.11-.15.17-.11.13-.22.27-.32.41-.03.04-.06.07-.09.11-.02-.03-.04-.05-.06-.08-.1-.15-.2-.3-.31-.44-.02-.03-.04-.06-.06-.08-.14-.18-.3-.35-.46-.51,0,0-.01-.01-.02-.02-.16-.15-.33-.3-.51-.43-.01,0-.03-.02-.04-.03-.55-.41-1.18-.72-1.86-.9-.03,0-.06-.02-.09-.02-.18-.05-.37-.08-.56-.11-.05,0-.09-.02-.14-.02-.22-.03-.45-.04-.68-.04-3.09,0-5.61,2.51-5.61,5.61h0c-2.09-1.26-3.37-3.5-3.37-5.97v-7.49c0-.49.21-.95.58-1.27.31-.26.7-.41,1.1-.41.09,0,.18,0,.27.02,22.69,3.62,45.7,3.62,68.39,0,.5-.08,1,.06,1.38.38.37.32.58.78.58,1.27v7.49ZM82.39,62.53v-8.63c0-.45-.3-.84-.74-.94-3.17-.76-6.52-.76-9.69,0-3.48-.77-7.13-.75-10.6.08-3.85-.86-7.9-.85-11.74.04-3.85-.89-7.89-.9-11.74-.04-3.47-.83-7.12-.85-10.6-.08-3.17-.76-6.52-.75-9.69,0-.44.1-.74.49-.74.94v8.63c-3.21,1.48-5.32,4.64-5.3,8.06v4.98c0,.45.3.83.74.94,11.48,2.82,24.39,4.3,37.35,4.3s25.87-1.49,37.35-4.3c.43-.11.74-.49.74-.94v-4.98c.02-3.42-2.09-6.58-5.3-8.06ZM73.11,54.68c2.41-.48,4.94-.48,7.35,0v8.62c0,2.03-1.65,3.67-3.67,3.67s-3.67-1.65-3.67-3.67v-8.62ZM62.5,54.76c2.84-.58,5.83-.58,8.67,0v9.2c0,2.39-1.95,4.34-4.34,4.34s-4.34-1.95-4.34-4.34v-9.2ZM50.57,54.83c3.28-.68,6.72-.68,10,0v9.79c0,2.76-2.24,5-5,5s-5-2.24-5-5v-9.79ZM38.64,63.96v-9.13c3.28-.68,6.72-.68,10,0v9.79c0,2.76-2.24,5-5,5s-5-2.24-5-5v-.66ZM28.04,63.29v-8.54c2.84-.58,5.83-.58,8.67,0v9.2c0,2.39-1.95,4.34-4.34,4.34s-4.34-1.95-4.34-4.34v-.66ZM18.76,54.68c2.41-.48,4.94-.48,7.35,0v8.62c0,2.03-1.65,3.67-3.67,3.67-.62,0-1.19-.15-1.7-.42-.02,0-.03-.02-.05-.02-.04-.02-.08-.05-.12-.07-1.09-.65-1.81-1.86-1.81-3.28v-8.49ZM85.76,74.81c-22.66,5.42-49.65,5.42-72.31,0v-4.23c-.01-2.39,1.36-4.69,3.53-5.96.02.09.05.18.08.26.01.03.02.07.03.1.55,1.76,1.93,3.11,3.65,3.65.02,0,.04.01.07.02.14.04.28.08.43.11.04,0,.08.02.12.03.13.03.27.05.4.06.05,0,.09.01.14.02.18.02.36.03.54.03.22,0,.43-.01.64-.04.08,0,.16-.03.24-.04.13-.02.26-.04.38-.07.07-.02.15-.04.22-.06.13-.04.26-.07.39-.11.05-.02.1-.04.15-.06.15-.06.29-.12.43-.18.02,0,.03-.02.05-.03.71-.36,1.35-.86,1.86-1.49.91,1.79,2.61,3,4.56,3.32.04,0,.08.02.13.03.29.04.59.06.89.06.26,0,.51-.02.76-.05,0,0,.02,0,.03,0,1.7-.21,3.23-1.11,4.25-2.5,1.09,2.22,3.24,3.68,5.7,3.86,0,0,0,0,.01,0,.17.01.34.02.51.02.31,0,.61-.02.91-.06,1.17-.16,2.25-.61,3.16-1.28.04-.03.08-.05.12-.08.12-.09.23-.2.34-.3.12-.1.24-.2.35-.31,0,0,.02-.02.03-.03.4-.4.76-.86,1.06-1.35.3.51.67.97,1.08,1.37,0,0,0,0,0,0,.11.11.24.21.36.32.11.1.21.2.33.28.04.03.09.06.13.09.91.66,1.98,1.12,3.15,1.27.3.04.6.06.91.06.17,0,.34,0,.51-.02,0,0,0,0,.01,0,2.46-.18,4.62-1.64,5.7-3.86,1.02,1.39,2.55,2.29,4.26,2.5,0,0,.02,0,.03,0,.25.03.51.05.76.05.3,0,.6-.02.89-.06.04,0,.08-.02.13-.03,1.96-.32,3.65-1.54,4.56-3.32.51.63,1.15,1.14,1.86,1.49.02,0,.03.02.05.03.14.07.28.12.43.18.05.02.1.05.15.06.12.04.25.08.38.11.08.02.15.05.23.07.12.03.25.05.38.07.08.01.16.03.25.04.21.02.43.04.64.04.18,0,.36-.01.54-.03.05,0,.09-.01.14-.02.13-.02.27-.04.4-.06.04,0,.08-.02.13-.03.14-.03.28-.07.42-.11.02,0,.05-.01.07-.02,1.72-.54,3.09-1.89,3.65-3.64.01-.04.02-.09.04-.13.02-.08.05-.16.07-.24,2.17,1.27,3.54,3.57,3.53,5.97v4.22Z"/>
</svg>