<?xml version="1.0" encoding="UTF-8"?>
<svg id="Capa_1" data-name="Capa 1" xmlns="http://www.w3.org/2000/svg" viewBox="0 0 85.04 85.04">
  <defs>
    <style>
      .cls-1 {
        fill: #00377b;
      }

      .cls-2 {
        fill: #00b3f4;
      }
    </style>
  </defs>
  <g>
    <path class="cls-1" d="M79.93,42.46c.2,14.75-8.35,29.64-22.19,35.47-24.44,10.64-51.89-8.97-52.58-34.98-.74-15.12,8.82-29.84,22.76-35.69,25.52-10.77,51.94,8.03,52.01,35.2ZM79.63,42.46c-.13-9.54-4.41-18.98-11.54-25.3C49.69.31,19.67,6.1,9.81,29.26c-8.02,18.3.51,39.87,19.48,46.84,23.12,8.65,50.47-8.29,50.34-33.65Z"/>
    <path class="cls-2" d="M68.09,17.16c7.13,6.32,11.4,15.76,11.54,25.3.13,25.36-27.21,42.29-50.34,33.65C10.32,69.14,1.79,47.57,9.81,29.26,19.67,6.1,49.69.31,68.09,17.16Z"/>
  </g>
  <path class="cls-1" d="M60.87,38.49h0c-.35.04-.7.06-1.06.06-3.87.03-7.49-1.9-9.62-5.12l.11,17.65c.05,7.21-5.76,13.08-12.96,13.13-7.21.05-13.08-5.76-13.13-12.96s5.76-13.08,12.96-13.13c.27,0,.54.02.81.04l.04,6.43c-.27-.03-.53-.08-.81-.08-3.68.02-6.64,3.02-6.61,6.7s3.02,6.64,6.7,6.61,6.91-2.94,6.88-6.62l-.13-29.98,6.15-.04c.62,5.51,5.09,9.79,10.62,10.16l.05,7.15Z"/>
</svg>